<?xml version="1.0" encoding="utf-8"?>
<!-- Generator: Adobe Illustrator 18.1.1, SVG Export Plug-In . SVG Version: 6.00 Build 0)  -->
<svg version="1.1" id="Layer_1" xmlns="http://www.w3.org/2000/svg" xmlns:xlink="http://www.w3.org/1999/xlink" x="0px" y="0px"
	 viewBox="0 0 108.4 107.7" enable-background="new 0 0 108.4 107.7" xml:space="preserve">
<linearGradient id="SVGID_1_" gradientUnits="userSpaceOnUse" x1="54.0941" y1="2.4758" x2="54.0941" y2="106.0348">
	<stop  offset="0" style="stop-color:#FFD80D"/>
	<stop  offset="0.3793" style="stop-color:#936126"/>
	<stop  offset="0.9704" style="stop-color:#FDEC7F"/>
</linearGradient>
<polygon fill="url(#SVGID_1_)" stroke="#754C29" stroke-miterlimit="10" points="44.4,3.7 49.7,7.9 54.2,2.3 58.7,7.9 64.2,3.3 
	67.4,9.7 73.8,6 75.4,13 82.7,11 83.3,18.2 90.3,17.4 89.6,24.7 96.7,25.4 94.6,32.2 101.7,33.8 98.1,40.2 104.6,43.6 100.1,49.1 
	105.7,53.6 100.1,58.3 105,63.6 98.2,66.9 101.8,73 94.8,75.2 97,82.1 89.6,82.8 90.6,90 83.4,89.2 82.9,96.2 75.4,94 73.8,100.9 
	67.6,97.6 64.4,103.8 58.7,99.7 54.3,105.3 49.5,99.7 44.4,104.2 40.9,97.6 34.4,101 32.6,93.6 25.7,96.1 24.9,88.9 17.7,89.9 
	18.7,82.5 11.4,82.3 13.7,75.2 6.7,73 10.3,66.7 3.5,63.2 8.5,58.3 2.5,53.6 8.5,49.1 3.5,43.3 10.4,40.2 6.4,33.8 13.9,31.9 
	11.2,24.7 18.8,24.3 17.7,17.2 25.3,18.2 25.6,10.9 32.5,13 34.6,5.9 40.8,9.5 "/>
<radialGradient id="SVGID_2_" cx="54.0941" cy="53.8333" r="45.8773" gradientUnits="userSpaceOnUse">
	<stop  offset="0" style="stop-color:#FFD66A"/>
	<stop  offset="0.5567" style="stop-color:#FDF16E"/>
	<stop  offset="1" style="stop-color:#2A2311"/>
</radialGradient>
<linearGradient id="SVGID_3_" gradientUnits="userSpaceOnUse" x1="54.1033" y1="7.1387" x2="54.1033" y2="100.5407">
	<stop  offset="0" style="stop-color:#FFD80D"/>
	<stop  offset="0.3793" style="stop-color:#936928"/>
	<stop  offset="0.9901" style="stop-color:#FDEC7F"/>
</linearGradient>
<path fill="url(#SVGID_2_)" stroke="url(#SVGID_3_)" stroke-miterlimit="10" d="M54,95.3l4.4,4.4l3.8-5.4l5.1,3.3l2.6-5.9l5.2,2.3
	l1.8-5.9l6.2,1.1v-6.4h6.2l-1-6.5l6.1-1.1l-2.5-5.8L98,67l-3.5-5.2l5.4-3.5l-4.6-4.6l4.6-4.5l-5.5-3.6l3.5-5.4l-5.7-2.5l2.2-5.5
	l-6.4-1.7l1.4-5.8h-6.2l-0.1-6.5l-6.1,1L75.2,13l-5.4,2.5l-2.6-5.8l-5,3.2l-3.7-5L54,12.3l-4.5-4.4l-3.6,5.2l-5.4-3.6l-2.1,5.8
	L32.3,13l-1.1,6.5l-6.1-1.2v5.8l-6.5,0.3l1.2,6.4c0,0-6.2,0.8-6.2,1.2c0,0.4,2.3,5.9,2.3,5.9l-5.8,2.3l3.3,5.4l-5.2,3.6l4.4,4.5
	l-4.4,4.6l5,3.6l-3.2,4.8l5.8,3l-2.3,5.5l6.1,2.2l-1.1,5.1l5.9,0.3l0.3,6.1l6.2-1l1.5,5.7l5.8-2.2l2.5,6.2l5.2-3.5l3.3,5.6L54,95.3z
	"/>
<linearGradient id="SVGID_4_" gradientUnits="userSpaceOnUse" x1="54.0941" y1="13.7325" x2="54.0941" y2="93.9342">
	<stop  offset="0" style="stop-color:#FFD80D"/>
	<stop  offset="0.3793" style="stop-color:#936928"/>
	<stop  offset="0.9704" style="stop-color:#FDEC7F"/>
</linearGradient>
<circle fill="none" stroke="url(#SVGID_4_)" stroke-width="13" stroke-miterlimit="10" cx="54.1" cy="53.8" r="33.6"/>
<g>
	<path d="M30.9,74.6l1.6,1.4l-1.1,2.6l2.5-1.5l1.3,1.1l-1,2.7l2.4-1.5l1.6,1.3l-5.1,3.1l-1.4-1.1l1-2.8l-2.6,1.5l-1.4-1.1L30.9,74.6
		z"/>
	<path d="M39.5,81l1.8,0.9l-0.4,6.2l-1.9-1l0.1-0.8l-1.9-1l-0.6,0.5l-1.9-1L39.5,81z M39.2,84.9l0.1-1.5l-1.1,1L39.2,84.9z"/>
	<path d="M43.3,83l2.8,0.8c1,0.3,1.6,0.7,1.9,1.2c0.3,0.4,0.3,0.9,0.2,1.4l0,0c-0.2,0.8-0.8,1.2-1.6,1.3l0.8,2.2l-2.2-0.7l-0.6-1.9
		l-0.4-0.1l-0.5,1.5l-1.9-0.6L43.3,83z M45.3,86.4c0.5,0.1,0.8,0,0.9-0.3l0,0c0.1-0.3-0.1-0.6-0.6-0.7l-0.8-0.3l-0.3,1.1L45.3,86.4z
		"/>
	<path d="M48.8,84.6l2.9,0.3c1.1,0.1,1.7,0.4,2.1,0.9c0.3,0.4,0.5,0.8,0.4,1.4l0,0c-0.1,0.8-0.6,1.3-1.4,1.6l1.2,2l-2.3-0.2l-1-1.7
		l-0.4,0l-0.2,1.6l-2-0.2L48.8,84.6z M51.4,87.5c0.5,0,0.8-0.1,0.8-0.5l0,0c0-0.4-0.2-0.6-0.7-0.6l-0.9-0.1l-0.1,1.1L51.4,87.5z"/>
	<path d="M56.4,84.9l2-0.2l3.1,5.4l-2.2,0.2l-0.4-0.7l-2.1,0.2l-0.2,0.8l-2.1,0.2L56.4,84.9z M58.3,88.3L57.6,87l-0.4,1.4L58.3,88.3
		z"/>
	<path d="M60.6,84.5l1.8-0.6l2.8,1.7l-0.8-2.4l1.9-0.6l1.8,5.3l-1.7,0.6l-2.9-1.8l0.8,2.5l-1.9,0.6L60.6,84.5z"/>
	<path d="M68.7,83l-1.6,0.8l-0.8-1.4l4.9-2.7l0.8,1.4l-1.6,0.8l1.9,3.6l-1.8,1L68.7,83z"/>
	<path d="M75,81.6l-4-1.5l1.8-1.4l2,0.8l-0.3-2.1l1.8-1.4l0.4,4.2l1.2,1.6l-1.6,1.2L75,81.6z"/>
</g>
<g>
	<path d="M29.6,26.2l4.3-3.1l1,1.4l-2.6,1.9l0.4,0.5l2.4-1.8l0.9,1.2l-2.4,1.8l0.4,0.5l2.7-1.9l1,1.4l-4.3,3.1L29.6,26.2z"/>
	<path d="M40.5,19.8L40,23.3l3.2,2l-2.1,1l-1.6-1l-0.2,1.9l-2.1,1l0.5-3.7l-3.1-1.9l2.1-1l1.4,1l0.2-1.7L40.5,19.8z"/>
	<path d="M43.5,20.8l-1.8,0.5l-0.5-1.7l5.5-1.5l0.5,1.7l-1.7,0.5l1.2,4.3l-2,0.5L43.5,20.8z"/>
	<path d="M48.1,17.9l5.2-0.5l0.2,1.7l-3.2,0.3l0.1,0.6l3-0.3l0.1,1.5l-3,0.3l0.1,0.7l3.3-0.3l0.2,1.7L48.7,24L48.1,17.9z"/>
	<path d="M54.8,17.3l1.9,0.2l1.9,2.9l0.3-2.7l2,0.2l-0.6,6.1l-1.8-0.2l-2-3.1l-0.3,2.8l-2-0.2L54.8,17.3z"/>
	<path d="M62.5,18.3l2.3,0.7c2.3,0.7,3.2,2.2,2.6,4l0,0c-0.5,1.7-2.1,2.6-4.5,1.9l-2.2-0.7L62.5,18.3z M64,20.6l-0.8,2.5l0.3,0.1
		c0.9,0.3,1.6,0.1,1.9-0.8l0,0c0.3-0.8-0.2-1.4-1.1-1.7L64,20.6z"/>
	<path d="M69.6,20.6l4.7,2.4l-0.8,1.5L70.6,23l-0.3,0.6L73,25l-0.7,1.3l-2.7-1.4l-0.3,0.6l2.9,1.5l-0.8,1.5l-4.7-2.4L69.6,20.6z"/>
	<path d="M75.4,23.8l1.9,1.4c1.9,1.5,2.2,3.2,1,4.6l0,0c-1.1,1.4-2.9,1.7-4.9,0.2l-1.8-1.4L75.4,23.8z M75.9,26.4l-1.6,2l0.3,0.2
		c0.7,0.6,1.5,0.6,2-0.1l0,0c0.5-0.7,0.3-1.4-0.4-2L75.9,26.4z"/>
</g>
<polygon fill="#F04923" points="52.4,36.8 35.3,36.8 51.1,76.1 58.1,76.1 73.8,36.8 56.8,36.8 56.6,39.2 64.2,44.6 54.6,66.3 
	44.8,44.5 52.4,39.3 "/>
<g>
	<polyline fill="none" stroke="#BFBFBF" stroke-width="0.4" stroke-miterlimit="10" points="52.6,42.7 51.7,44.5 52.4,52.2 	"/>
	<polyline fill="none" stroke="#BFBFBF" stroke-width="0.4" stroke-miterlimit="10" points="52.6,52.8 54.6,44.5 56.5,52.3 
		57.7,44.5 56.7,42.7 	"/>
	<polyline fill="none" stroke="#BFBFBF" stroke-width="0.4" stroke-miterlimit="10" points="54.6,65.6 56.5,52.3 60.7,44.9 
		60.5,53.2 	"/>
	<polyline fill="none" stroke="#BFBFBF" stroke-width="0.4" stroke-miterlimit="10" points="48.1,44.5 52.2,40.3 56.9,40.3 
		61.8,44.5 	"/>
	<polyline fill="none" stroke="#BFBFBF" stroke-width="0.4" stroke-miterlimit="10" points="54.7,66.3 52.6,52.8 48.7,44.9 
		48.8,53.1 	"/>
	<polyline fill="none" stroke="#BFBFBF" stroke-width="0.4" stroke-miterlimit="10" points="48.4,44.5 52.4,42.3 57.1,42.3 
		60.9,44.5 	"/>
</g>
<g>
	<polygon fill="none" stroke="#191919" stroke-width="0.4" stroke-miterlimit="10" points="52.5,39.2 44.9,44.5 54.7,66.3 
		64.3,44.6 56.6,39.2 	"/>
	<line fill="none" stroke="#191919" stroke-width="0.4" stroke-miterlimit="10" x1="44.9" y1="44.5" x2="64.3" y2="44.5"/>
	<polygon fill="none" stroke="#191919" stroke-width="0.4" stroke-miterlimit="10" points="54.6,44.5 50.5,40.5 52.5,39.2 
		56.6,39.2 58.9,40.8 	"/>
</g>
<path d="M64.9,59.9c0,0,19.1-10.7,15.8-13.5c-7-5.8-53.6,15.5-53.6,15.5s38-13.5,46.2-11.5c0,0,2.2,0.9,0,3L64.9,59.9z"/>
<path fill="none" stroke="#6D6E71" stroke-width="0.2" stroke-miterlimit="10" d="M22.8,63.4"/>
</svg>
