<?xml version="1.0" encoding="utf-8"?>
<!-- Generator: Adobe Illustrator 18.1.1, SVG Export Plug-In . SVG Version: 6.00 Build 0)  -->
<svg version="1.1" id="Layer_1" xmlns="http://www.w3.org/2000/svg" xmlns:xlink="http://www.w3.org/1999/xlink" x="0px" y="0px"
	 viewBox="0 0 606.3 161" enable-background="new 0 0 606.3 161" xml:space="preserve">
<path fill="#525252" d="M459.1,13.9l4.6-0.7c0.4-0.1,0.8-0.1,1.2,0c2.4,0.6,11.1,3.2,7,10.5c-0.4,0.8-1.2,1.4-2.1,1.5L414,35.9
	c-0.6,0.1-1.2,0-1.8-0.2c-3.1-1.4-12.9-6.5-3.5-12.8c0.3-0.2,0.7-0.4,1.1-0.4L459.1,13.9z"/>
<path fill="#5B5B5B" d="M270.2,151.2c0,0,44.7,7.9,104.7,8.8c26.2,0.4,55.3-0.6,84.8-4.3c25.4-3.1,54.6-7.7,78.2-15.5
	c24.6-8.1,43.8-18.9,53.7-27c19.4-16,14.5-38.8-14.1-55c-13.5-7.6-36.1-16.6-56.8-21.8c-46.3-11.6-94.2-12.5-93.2-11
	c3.9-0.2,31.2,9.8,51.2,20.2c30.3,15.7,66,56.7-48.3,88.5C393.6,144.4,344.3,149.9,270.2,151.2z"/>
<linearGradient id="SVGID_1_" gradientUnits="userSpaceOnUse" x1="433.6504" y1="1.4291" x2="439.9004" y2="29.6791">
	<stop  offset="0.1383" style="stop-color:#AAAAAA"/>
	<stop  offset="0.7597" style="stop-color:#AAAAAA"/>
	<stop  offset="1" style="stop-color:#F8F8F8"/>
</linearGradient>
<path fill="url(#SVGID_1_)" d="M458.9,13.7l4.5-0.7c0.5-0.1,1-0.1,1.5,0.1c2.6,0.6,10.6,3.3,6.9,10.2c-0.5,1-1.4,1.6-2.5,1.8
	L414,35.6c-0.7,0.1-1.5,0.1-2.1-0.2c-3.3-1.5-12.5-6.5-3.4-12.6c0.4-0.3,0.9-0.5,1.4-0.5L458.9,13.7z"/>
<path fill="#AAAAAA" d="M288.3,10.3L259.7,12c0,0-113.7,6-161.7,47.3s49.7,70.7,49.7,70.7l6.3,1.7c0,0-42.7-1.3-66-5.3
	s-85-22.7-84.3-50s60-48.8,76.7-54c18.5-5.8,64.8-14.4,93.5-16.8C210.1,2.6,249.7,3.3,288.3,10.3z"/>
<polygon fill="#4F4F4F" points="173.6,117.5 173.7,130.5 92.8,144.5 96,132.7 "/>
<linearGradient id="SVGID_2_" gradientUnits="userSpaceOnUse" x1="92.7708" y1="130.7708" x2="173.6458" y2="130.7708">
	<stop  offset="0" style="stop-color:#AAAAAA"/>
	<stop  offset="1" style="stop-color:#F8F8F8"/>
</linearGradient>
<polygon fill="url(#SVGID_2_)" points="173.5,117.3 173.6,130.3 92.8,144.3 95.9,132.5 "/>
<path fill="#525252" d="M423.8,24.5l33.9-6.2c0,0,3.1,1.8,0.6,2.5c0,0-33.7,6.3-34.6,6.4C423.5,27.2,421.4,25.6,423.8,24.5z"/>
<linearGradient id="SVGID_3_" gradientUnits="userSpaceOnUse" x1="442.2028" y1="29.4091" x2="440.5361" y2="21.4091">
	<stop  offset="0.765" style="stop-color:#AAAAAA"/>
	<stop  offset="1" style="stop-color:#F8F8F8"/>
</linearGradient>
<path fill="url(#SVGID_3_)" d="M423.7,24.4l33.9-6.2c0,0,3.1,1.8,0.6,2.5c0,0-33.7,6.3-34.6,6.4C423.4,27.1,421.3,25.5,423.7,24.4z"
	/>
<linearGradient id="SVGID_4_" gradientUnits="userSpaceOnUse" x1="435.7256" y1="19.5" x2="439.2187" y2="19.5">
	<stop  offset="0" style="stop-color:#747474"/>
	<stop  offset="0.5074" style="stop-color:#FFFFFF"/>
	<stop  offset="1" style="stop-color:#0A0A0A"/>
</linearGradient>
<path fill="url(#SVGID_4_)" d="M435.8,23.6c0,0-0.2-3.9,0.3-6.3c0.2-1,0.9-1.8,1.3-1.9c0.6-0.1,1.4,1.2,1.8,2.4
	c0.3,0.8-0.3,1.5-0.3,1.5l0,3.7L435.8,23.6z"/>
<linearGradient id="SVGID_5_" gradientUnits="userSpaceOnUse" x1="448.3481" y1="18.0457" x2="446.6382" y2="9.8383">
	<stop  offset="0" style="stop-color:#BF4500"/>
	<stop  offset="1" style="stop-color:#FF753F"/>
</linearGradient>
<path fill="url(#SVGID_5_)" d="M437.1,13.8c14.5-5.7,14.5-5.2,16.8-5c0.8,0.1,1.6,0.4,2.2,0.9c0.7,0.6,1.5,1.3,1.6,2.2
	c0.3,1.6-0.5,3-2.3,4.3s-16.1,3.3-16.1,3.3c-2.6-3.9-1.9-3.5-2.4-4.7L437.1,13.8z"/>
<path fill="#4F4F4F" d="M148.3,123.1l1,0.2l-0.2,6l-11.4,2.4c0,0-5.7-7.4-15.4-4.8c0,0-9.8,1.4-10.1,7.4c0,0.2,0.2,1.7,0.3,1.9
	l-11.8,2.4l-0.6-3.9c0,0,9.8-9.5,20.1-10.3c5.3-0.4,14.7-2.7,22.9,1.6l4,1.1L148.3,123.1z"/>
<linearGradient id="SVGID_6_" gradientUnits="userSpaceOnUse" x1="94.0833" y1="131.2734" x2="149.5365" y2="131.2734">
	<stop  offset="0" style="stop-color:#434343"/>
	<stop  offset="1" style="stop-color:#020202"/>
</linearGradient>
<path opacity="0.3" fill="url(#SVGID_6_)" d="M94.1,139.3c0.1,0,54.8-10.3,54.8-10.3l0.7-5.7l-54.1,11.2L94.1,139.3z"/>
<linearGradient id="SVGID_7_" gradientUnits="userSpaceOnUse" x1="99.8958" y1="130.3021" x2="149.5208" y2="130.3021">
	<stop  offset="0" style="stop-color:#6A1A00"/>
	<stop  offset="1" style="stop-color:#7F2700"/>
</linearGradient>
<path fill="url(#SVGID_7_)" d="M147.5,122.4l2,0.7l-0.6,5.9l-11.4,2.4c0,0-5.3-6.8-15-4.3c0,0-9.8,1.4-10.1,7.4
	c0,0.2,0.1,1.1,0.1,1.3l-11.8,2.4l-0.8-3.7c0,0,10.2-9.1,20.4-10c5.3-0.4,14.7-2.7,22.9,1.6l4,1.1L147.5,122.4z"/>
<linearGradient id="SVGID_8_" gradientUnits="userSpaceOnUse" x1="99.8333" y1="127.3874" x2="148.0208" y2="127.3874">
	<stop  offset="0" style="stop-color:#AA5000"/>
	<stop  offset="1" style="stop-color:#FF7D15"/>
</linearGradient>
<path fill="url(#SVGID_8_)" d="M100.6,131.4l-0.8,3.2c0,0,18.1-18,47.8-6.9l0.4-5.1C148,122.6,120.8,113.3,100.6,131.4z"/>
<polygon fill="#4F4F4F" points="149.5,123.3 150.5,124.5 173.6,120.6 173.6,125.3 149.8,129.6 148.8,129.1 "/>
<linearGradient id="SVGID_9_" gradientUnits="userSpaceOnUse" x1="148.8333" y1="124.9271" x2="173.5833" y2="124.9271">
	<stop  offset="0" style="stop-color:#F1F1F1"/>
	<stop  offset="1" style="stop-color:#CFCFCF"/>
</linearGradient>
<polygon fill="url(#SVGID_9_)" points="149.5,123.1 150.5,124.3 173.6,120.5 173.6,125.1 149.8,129.4 148.8,129 "/>
<linearGradient id="SVGID_10_" gradientUnits="userSpaceOnUse" x1="473.2959" y1="-8.5242" x2="472.46" y2="-12.5361" gradientTransform="matrix(0.9806 -0.1959 0.1836 0.9192 -18.4351 119.1758)">
	<stop  offset="0" style="stop-color:#552100"/>
	<stop  offset="1" style="stop-color:#BF3500"/>
</linearGradient>
<path opacity="0.4" fill="url(#SVGID_10_)" d="M444.3,16.7c0.2,1.1,0,2-0.6,2.1c-0.5,0.1-1.1-0.7-1.3-1.7s0-2,0.6-2.1
	C443.5,14.9,444.1,15.6,444.3,16.7z"/>
<linearGradient id="SVGID_11_" gradientUnits="userSpaceOnUse" x1="476.8936" y1="-10.5222" x2="476.0578" y2="-14.5341" gradientTransform="matrix(0.9806 -0.1959 0.1813 0.9077 -18.0764 120.9713)">
	<stop  offset="0" style="stop-color:#552100"/>
	<stop  offset="1" style="stop-color:#BF3500"/>
</linearGradient>
<path opacity="0.4" fill="url(#SVGID_11_)" d="M447.8,16.1c0.2,1,0,2-0.6,2.1s-1.1-0.7-1.3-1.7c-0.2-1,0-2,0.6-2.1
	C447,14.3,447.6,15,447.8,16.1z"/>
<linearGradient id="SVGID_12_" gradientUnits="userSpaceOnUse" x1="480.3152" y1="-10.541" x2="479.4793" y2="-14.553" gradientTransform="matrix(0.9806 -0.1959 0.1813 0.9077 -18.0764 120.9713)">
	<stop  offset="0" style="stop-color:#552100"/>
	<stop  offset="1" style="stop-color:#BF3500"/>
</linearGradient>
<path opacity="0.4" fill="url(#SVGID_12_)" d="M451.2,15.4c0.2,1,0,2-0.6,2.1c-0.5,0.1-1.1-0.7-1.3-1.7c-0.2-1,0-2,0.6-2.1
	C450.4,13.6,451,14.4,451.2,15.4z"/>
<linearGradient id="SVGID_13_" gradientUnits="userSpaceOnUse" x1="483.6328" y1="-10.5596" x2="482.797" y2="-14.5715" gradientTransform="matrix(0.9806 -0.1959 0.1813 0.9077 -18.0764 120.9713)">
	<stop  offset="0" style="stop-color:#552100"/>
	<stop  offset="1" style="stop-color:#BF3500"/>
</linearGradient>
<path opacity="0.4" fill="url(#SVGID_13_)" d="M454.4,14.7c0.2,1,0,2-0.6,2.1c-0.5,0.1-1.1-0.7-1.3-1.7c-0.2-1,0-2,0.6-2.1
	C453.6,12.9,454.2,13.7,454.4,14.7z"/>
<g>
	<path fill="#FD4500" stroke="#333333" stroke-width="2" stroke-miterlimit="10" d="M173.7,60.2c0.3-0.9,0.6-1.7,0.8-2.5
		c0.2-0.8,0.3-1.6,0.3-2.4c0-1-0.3-1.8-0.8-2.3c-0.6-0.5-1.4-0.9-2.6-0.9V50h14.3v2.1c-0.8,0.1-1.6,0.4-2.1,0.8
		c-0.6,0.4-1.1,0.9-1.6,1.7c-0.5,0.7-1,1.9-1.7,3.5l-13.9,34.8h-7.6l-10.9-35c-0.5-1.6-0.9-2.7-1.2-3.3c-0.3-0.7-0.8-1.2-1.3-1.6
		c-0.5-0.4-1.3-0.7-2.2-0.9V50h18.3v2.1c-1.1,0.1-2,0.4-2.5,0.9c-0.6,0.5-0.8,1.2-0.8,2c0,0.7,0.1,1.4,0.2,2s0.4,1.7,0.8,3.1
		l6.6,22.4L173.7,60.2z"/>
	<path fill="#FD4500" stroke="#333333" stroke-width="2" stroke-miterlimit="10" d="M205.7,79.4h-14.1l-1.1,3
		c-0.3,0.8-0.6,1.6-0.8,2.4c-0.2,0.8-0.3,1.6-0.3,2.5c0,2,1.1,3.1,3.4,3.3v2.1h-14.1v-2.1c0.8-0.1,1.5-0.4,2.2-0.8
		c0.6-0.5,1.2-1.1,1.7-1.9c0.5-0.8,1-1.9,1.6-3.4L198,49.8h8.8l10.9,35c0.5,1.6,0.9,2.7,1.2,3.3c0.3,0.7,0.8,1.2,1.3,1.6
		s1.3,0.7,2.2,0.9v2.1h-18.3v-2.1c1.1-0.1,2-0.4,2.5-0.9c0.6-0.5,0.8-1.2,0.8-2c0-0.6-0.1-1.4-0.2-2.2c-0.2-0.8-0.4-1.8-0.8-3
		L205.7,79.4z M192.8,75.7h11.9l-5.3-17.6L192.8,75.7z"/>
	<path fill="#FD4500" stroke="#333333" stroke-width="2" stroke-miterlimit="10" d="M266.5,50v2.1c-0.9,0.3-1.5,0.5-1.9,0.7
		c-0.4,0.2-0.7,0.4-0.9,0.7c-0.3,0.3-0.4,0.8-0.6,1.4c-0.1,0.6-0.2,1.6-0.2,2.9v34.8h-8.4l-14.9-24.3c-2-3.3-3.5-5.9-4.4-7.7h-0.3
		c0.2,4.5,0.3,9.2,0.3,14.2v10c0,1.6,0.1,2.7,0.2,3.3c0.2,0.6,0.5,1.1,0.9,1.5c0.4,0.4,1.2,0.7,2.4,1v2.1h-12.5v-2.1
		c0.8-0.2,1.5-0.4,1.9-0.7c0.5-0.3,0.8-0.6,1.1-1c0.2-0.4,0.4-1,0.4-1.6c0.1-0.6,0.1-1.5,0.1-2.4v-27c0-1.6-0.1-2.6-0.2-3.2
		c-0.1-0.6-0.4-1.1-0.9-1.5c-0.5-0.4-1.3-0.7-2.4-1V50h13.4l11.7,19.2c0.7,1.2,1.7,2.8,2.8,4.9c1.2,2.1,2.2,4,3.1,5.8h0.5
		c-0.2-5-0.4-10.4-0.4-16.3v-5.8c0-1.4-0.1-2.3-0.2-2.9s-0.3-1.1-0.5-1.4c-0.2-0.3-0.5-0.6-0.9-0.8s-1-0.4-1.9-0.7V50H266.5z"/>
	<path fill="#FD4500" stroke="#333333" stroke-width="2" stroke-miterlimit="10" d="M281.8,92.6v-2.1c0.9-0.1,1.7-0.3,2.2-0.6
		c0.5-0.2,0.9-0.6,1.2-1c0.3-0.4,0.4-1,0.5-1.7c0.1-0.7,0.1-1.5,0.1-2.5V53.6h-2.7c-1.3,0-2.3,0.1-3,0.4c-0.7,0.3-1.3,0.7-1.8,1.4
		c-0.5,0.6-1,1.5-1.3,2.5c-0.4,1.1-0.7,2-0.9,3h-4.5V50h39v11h-4.5c-0.4-1.4-0.8-2.5-1-3.1c-0.2-0.7-0.5-1.2-0.8-1.7
		c-0.3-0.5-0.6-0.9-0.9-1.2c-0.3-0.3-0.7-0.6-1.1-0.7c-0.4-0.2-0.8-0.3-1.4-0.4c-0.6-0.1-1.3-0.1-2.2-0.1H296v31.1
		c0,1.1,0,1.9,0.1,2.5c0.1,0.6,0.2,1,0.4,1.4c0.2,0.4,0.4,0.6,0.6,0.9c0.3,0.2,0.6,0.4,1.1,0.6c0.5,0.2,1.1,0.3,1.8,0.4v2.1H281.8z"
		/>
	<path fill="#FD4500" stroke="#333333" stroke-width="2" stroke-miterlimit="10" d="M348.5,50v9.9H344c-0.7-2-1.3-3.3-1.9-4
		c-0.5-0.7-1.1-1.2-1.8-1.7c-0.7-0.4-1.9-0.6-3.6-0.6h-7.2v15h4.4c1,0,1.7-0.1,2.3-0.4c0.6-0.3,1-0.7,1.4-1.3c0.4-0.6,0.7-1.5,1-2.8
		h3.7v12.7h-3.7c-0.3-1.2-0.7-2.1-1-2.8s-0.8-1.1-1.3-1.4c-0.5-0.3-1.3-0.4-2.3-0.4h-4.4v16.7h7.2c0.8,0,1.4,0,2-0.1
		c0.5-0.1,1-0.3,1.4-0.5c0.4-0.2,0.8-0.5,1.2-0.9c0.4-0.4,0.7-0.8,1-1.3c0.3-0.5,0.6-1.1,0.9-1.8s0.7-1.8,1.1-3.1h4.5l-0.6,11.4
		h-32.5v-2.1c0.8-0.2,1.5-0.4,1.9-0.7c0.5-0.2,0.8-0.6,1.1-1c0.2-0.4,0.4-1,0.4-1.6s0.1-1.5,0.1-2.5V57.9c0-1,0-1.8-0.1-2.5
		c-0.1-0.7-0.2-1.2-0.4-1.6c-0.2-0.4-0.6-0.8-1.1-1c-0.5-0.3-1.1-0.5-2-0.7V50H348.5z"/>
	<path fill="#FD4500" stroke="#333333" stroke-width="2" stroke-miterlimit="10" d="M387.1,51v9h-4.5c-0.5-2.4-1.4-4.1-2.5-5.2
		c-1.1-1.1-2.6-1.7-4.5-1.7c-3.5,0-6.1,1.6-7.9,4.7c-1.8,3.2-2.7,7.8-2.7,14c0,5.8,0.8,10.1,2.4,13.1c1.6,3,4,4.4,7.2,4.4
		c1.6,0,2.9-0.3,3.9-0.8s1.8-1.3,2.4-2.3c0.6-1,1.1-2.5,1.6-4.3h4.5v9.5c-2.4,0.5-4.6,0.9-6.7,1.2c-2,0.2-4.1,0.4-6.3,0.4
		c-4.6,0-8.3-0.8-11.2-2.3c-2.9-1.6-5-3.9-6.4-7.1c-1.4-3.2-2.1-7.1-2.1-12c0-4.5,0.8-8.4,2.4-11.8c1.6-3.3,4-5.9,7.2-7.7
		c3.2-1.8,6.9-2.7,11.3-2.7c2.2,0,4.2,0.1,6.1,0.3S385.1,50.4,387.1,51z"/>
	<path fill="#FD4500" stroke="#333333" stroke-width="2" stroke-miterlimit="10" d="M432.1,84.8c0,1.6,0.1,2.7,0.2,3.3
		c0.1,0.6,0.4,1.1,0.9,1.5c0.4,0.4,1.2,0.7,2.4,1v2.1h-17.3v-2.1c1.3-0.3,2.1-0.6,2.5-0.9s0.6-0.8,0.8-1.3c0.2-0.6,0.2-1.7,0.2-3.5
		V72.2h-15v12.5c0,0.7,0,1.4,0.1,2c0,0.6,0.1,1.1,0.3,1.5c0.1,0.4,0.3,0.7,0.6,1c0.3,0.3,0.6,0.5,1,0.7c0.4,0.2,1,0.4,1.6,0.5v2.1
		h-17.4v-2.1c0.8-0.2,1.5-0.4,1.9-0.7c0.5-0.2,0.8-0.6,1.1-1c0.2-0.4,0.4-1,0.4-1.6s0.1-1.5,0.1-2.5V57.9c0-1,0-1.8-0.1-2.5
		c-0.1-0.7-0.2-1.2-0.4-1.6c-0.2-0.4-0.6-0.8-1.1-1c-0.5-0.3-1.1-0.5-2-0.7V50h17.4v2.1c-1.2,0.3-2,0.7-2.4,1
		c-0.4,0.4-0.7,0.9-0.9,1.5s-0.3,1.7-0.3,3.3v10.4h15V57.9c0-1.6-0.1-2.7-0.2-3.3c-0.1-0.6-0.4-1.1-0.9-1.5c-0.4-0.4-1.2-0.7-2.4-1
		V50h17.3v2.1c-1,0.2-1.7,0.5-2.1,0.8c-0.4,0.3-0.8,0.6-0.9,1.1c-0.2,0.4-0.3,0.9-0.4,1.5c-0.1,0.5-0.1,1.4-0.1,2.5V84.8z"/>
</g>
<rect x="154" y="95.1" fill="#AAAAAA" width="282.5" height="0.8"/>
<g>
	<path fill="#FD4500" stroke="#333333" stroke-miterlimit="10" d="M284.3,101c-2.4,0-4.3,0.8-5.7,2.4c-1.4,1.6-2.1,3.8-2.1,6.6
		c0,2.9,0.7,5.1,2,6.7c1.3,1.6,3.3,2.4,5.8,2.4c1.5,0,3.3-0.3,5.2-0.8v2.2c-1.5,0.6-3.4,0.9-5.6,0.9c-3.2,0-5.7-1-7.5-2.9
		c-1.8-2-2.6-4.8-2.6-8.4c0-2.3,0.4-4.2,1.3-6c0.8-1.7,2.1-3,3.7-3.9c1.6-0.9,3.5-1.4,5.6-1.4c2.3,0,4.3,0.4,6,1.3l-1.1,2.2
		C287.6,101.4,285.9,101,284.3,101z"/>
	<path fill="#FD4500" stroke="#333333" stroke-miterlimit="10" d="M314.1,110c0,3.5-0.9,6.3-2.7,8.3c-1.8,2-4.3,3-7.4,3
		c-3.2,0-5.7-1-7.5-3c-1.8-2-2.6-4.8-2.6-8.4c0-3.6,0.9-6.4,2.6-8.3c1.8-2,4.3-3,7.5-3c3.2,0,5.6,1,7.4,3
		C313.2,103.7,314.1,106.5,314.1,110z M296.5,110c0,3,0.6,5.2,1.9,6.8c1.3,1.5,3.1,2.3,5.5,2.3c2.4,0,4.3-0.8,5.5-2.3
		c1.2-1.5,1.9-3.8,1.9-6.8c0-3-0.6-5.2-1.9-6.7c-1.2-1.5-3.1-2.3-5.5-2.3c-2.4,0-4.3,0.8-5.6,2.3C297.2,104.8,296.5,107.1,296.5,110
		z"/>
	<path fill="#FD4500" stroke="#333333" stroke-miterlimit="10" d="M336.8,121h-2.9l-12-18.4h-0.1c0.2,2.2,0.2,4.1,0.2,6V121h-2.4V99
		h2.9l12,18.4h0.1c0-0.3-0.1-1.1-0.1-2.6c-0.1-1.5-0.1-2.5-0.1-3.1V99h2.4V121z"/>
	<path fill="#FD4500" stroke="#333333" stroke-miterlimit="10" d="M353,101c-2.4,0-4.3,0.8-5.7,2.4c-1.4,1.6-2.1,3.8-2.1,6.6
		c0,2.9,0.7,5.1,2,6.7s3.3,2.4,5.8,2.4c1.5,0,3.3-0.3,5.2-0.8v2.2c-1.5,0.6-3.4,0.9-5.6,0.9c-3.2,0-5.7-1-7.5-2.9
		c-1.8-2-2.6-4.8-2.6-8.4c0-2.3,0.4-4.2,1.3-6c0.8-1.7,2.1-3,3.7-3.9c1.6-0.9,3.5-1.4,5.6-1.4c2.3,0,4.3,0.4,6,1.3l-1.1,2.2
		C356.3,101.4,354.7,101,353,101z"/>
	<path fill="#FD4500" stroke="#333333" stroke-miterlimit="10" d="M366.3,111.9v9.1h-2.6V99h6c2.7,0,4.7,0.5,6,1.5
		c1.3,1,1.9,2.6,1.9,4.7c0,2.9-1.5,4.9-4.4,5.9l6,9.9h-3l-5.3-9.1H366.3z M366.3,109.7h3.5c1.8,0,3.1-0.4,4-1.1
		c0.8-0.7,1.3-1.8,1.3-3.2c0-1.5-0.4-2.5-1.3-3.1c-0.9-0.6-2.2-1-4.1-1h-3.3V109.7z"/>
	<path fill="#FD4500" stroke="#333333" stroke-miterlimit="10" d="M395.7,121h-12.3V99h12.3v2.3H386v7.1h9.1v2.3H386v8.1h9.7V121z"
		/>
	<path fill="#FD4500" stroke="#333333" stroke-miterlimit="10" d="M408.1,121h-2.6v-19.7h-7V99H415v2.3h-7V121z"/>
	<path fill="#FD4500" stroke="#333333" stroke-miterlimit="10" d="M431.3,121H419V99h12.3v2.3h-9.7v7.1h9.1v2.3h-9.1v8.1h9.7V121z"
		/>
</g>
<g>
	<path fill="#FD4500" d="M437.9,119.9v-7.3h0.9v6.6h3.4v0.8H437.9z"/>
	<path fill="#FD4500" d="M446.2,119.9h-0.9v-6.6h-2.5v-0.8h5.8v0.8h-2.5V119.9z"/>
	<path fill="#FD4500" d="M456.3,116.1c0,1.2-0.3,2.1-1,2.8c-0.7,0.6-1.7,1-3,1h-2.2v-7.3h2.4c1.2,0,2.1,0.3,2.8,0.9
		C456,114.1,456.3,115,456.3,116.1z M455.3,116.2c0-1-0.3-1.7-0.8-2.2s-1.3-0.7-2.3-0.7H451v5.9h1.1c1.1,0,1.9-0.3,2.4-0.8
		C455.1,117.9,455.3,117.1,455.3,116.2z"/>
	<path fill="#FD4500" d="M458,119.3c0-0.2,0.1-0.4,0.2-0.5s0.3-0.2,0.5-0.2c0.2,0,0.4,0.1,0.5,0.2s0.2,0.3,0.2,0.5
		c0,0.2-0.1,0.4-0.2,0.5c-0.1,0.1-0.3,0.2-0.5,0.2c-0.2,0-0.3-0.1-0.5-0.2C458.1,119.8,458,119.6,458,119.3z"/>
</g>
<linearGradient id="SVGID_14_" gradientUnits="userSpaceOnUse" x1="453.2356" y1="31.7707" x2="446.8606" y2="19.2707">
	<stop  offset="0.1383" style="stop-color:#AAAAAA"/>
	<stop  offset="1" style="stop-color:#020202"/>
</linearGradient>
<path opacity="0.4" fill="url(#SVGID_14_)" d="M437.8,25.1l3.3,2.3l16.3-1c1.3-0.1,2.4-0.8,3.1-1.9l0.6-1c0.6-1,0.3-2.3-0.8-2.9v0
	c-1.2-0.7-2.7-0.8-4-0.3l-8.3,2.1l-7.6,2.1l-1.6-1.4l-3.1,0.5L437.8,25.1z"/>
</svg>
